<svg width="294" height="294" viewBox="0 0 294 294" fill="none" xmlns="http://www.w3.org/2000/svg">
<g clip-path="url(#clip0_84_37)">
<path d="M13.2613 5.71093C33.9163 6.68293 52.5058 7.29043 69.0298 7.53343C85.3108 7.77643 104.508 7.89793 126.621 7.89793L190.773 7.89794C208.755 7.89794 224.307 7.77644 237.429 7.53344C250.308 7.29045 264.888 6.68295 281.169 5.71095L282.627 16.2814C277.281 19.6834 270.355 27.4594 261.85 39.6094C253.345 52.0024 245.934 65.7319 239.616 80.7979L154.323 284.918L145.575 284.918L49.7113 73.1434C43.3933 59.2924 36.8323 47.3854 30.0283 37.4224C23.2243 27.4594 17.0278 20.4124 11.4388 16.2814L13.2613 5.71093ZM225.765 76.4239C228.438 70.1059 230.868 64.2739 233.055 58.9279C234.999 53.5819 235.971 49.5724 235.971 46.8994C235.971 41.3104 231.232 38.5159 221.755 38.5159L189.315 38.8804C182.754 39.1234 172.062 39.2449 157.239 39.2449C143.631 39.2449 133.789 39.1234 127.714 38.8804L98.5543 38.5159C91.5073 38.5159 86.6473 39.0019 83.9743 39.9739C81.3013 41.1889 79.9648 43.2544 79.9648 46.1704C79.9648 48.3574 80.9368 51.6379 82.8808 56.0119C84.5818 60.3859 86.6473 65.3674 89.0773 70.9564L160.884 232.065L225.765 76.4239Z" fill="currentColor"/>
<path d="M260.383 154.791L44.5995 155.885L44.5995 134.015L260.019 132.921L260.383 154.791Z" fill="currentColor"/>
</g>
<defs>
<clipPath id="clip0_84_37">
<rect width="294" height="294" fill="white"/>
</clipPath>
</defs>
</svg>
