<svg width="1403" height="689" viewBox="0 0 1403 689" fill="none" xmlns="http://www.w3.org/2000/svg">
<g clip-path="url(#clip0_72_8)">
<path d="M291.314 255.924C273.178 255.924 256.524 251.477 241.352 242.583C226.354 233.515 214.496 221.221 205.777 205.7C197.057 190.179 192.698 173.089 192.698 154.43C192.698 136.294 197.232 119.465 206.3 103.945C215.368 88.4241 227.401 76.1298 242.398 67.0616C257.57 57.8191 273.875 53.1978 291.314 53.1978C300.905 53.1978 312.851 54.9417 327.151 58.4294C338.312 61.0452 346.508 62.3532 351.739 62.3532C357.669 62.3532 362.9 61.0452 367.434 58.4294L371.096 61.0452C364.818 85.8083 362.028 107.258 362.726 125.394L356.186 126.179C350.257 105.078 341.363 89.4705 329.505 79.356C317.647 69.0671 303.26 63.9226 286.344 63.9226C273.962 63.9226 262.714 67.4976 252.6 74.6475C242.485 81.623 234.464 91.3015 228.534 103.683C222.78 115.89 219.902 129.58 219.902 144.751V145.275H273.265C283.728 145.275 292.099 142.92 298.377 138.212C304.655 133.503 308.491 125.307 309.886 113.623H316.426C318.344 130.539 320.175 144.751 321.919 156.261C323.663 167.771 325.93 179.629 328.72 191.836L322.181 194.19C316.251 179.367 309.799 169.253 302.824 163.847C295.848 158.441 286.867 155.738 275.881 155.738H220.425C221.995 170.386 226.529 183.553 234.028 195.237C241.526 206.921 251.03 216.163 262.54 222.964C274.05 229.591 286.605 232.905 300.208 232.905C319.39 232.905 334.475 228.283 345.461 219.041C356.622 209.624 365.778 194.714 372.928 174.31L379.205 175.357C374.148 200.643 364.208 220.436 349.385 234.736C334.562 248.861 315.205 255.924 291.314 255.924ZM402.022 77.0017C411.614 69.6774 421.467 64.1842 431.581 60.5221C441.87 56.8599 453.38 55.0289 466.11 55.0289C491.396 55.0289 509.968 63.7483 521.827 81.187C535.778 74.9091 548.508 70.2006 560.018 67.0616L564.726 72.8164C554.961 79.0944 547.811 86.3315 543.277 94.5277C538.917 102.724 536.737 114.059 536.737 128.533C536.737 137.078 537.522 147.28 539.091 159.138C541.707 177.798 546.328 195.237 552.955 211.455C559.582 227.498 567.081 238.747 575.451 245.199L572.051 252H530.197C529.5 242.409 528.541 232.294 527.32 221.657C526.099 211.019 523.92 194.975 520.781 173.525C514.851 192.011 506.481 207.444 495.669 219.825C485.031 232.033 473.609 241.014 461.401 246.768C449.369 252.523 437.946 255.401 427.134 255.401C418.066 255.401 410.829 253.482 405.423 249.646C402.11 247.03 399.494 243.368 397.575 238.659C395.657 233.776 394.698 228.022 394.698 221.395C394.698 209.537 398.099 196.37 404.9 181.896C411.701 167.422 422.339 152.86 436.813 138.212C445.358 130.016 455.036 121.907 465.848 113.885C476.835 105.863 488.17 98.6258 499.854 92.1735C489.216 78.0481 474.481 70.9854 455.647 70.9854C440.649 70.9854 423.995 75.4322 405.685 84.326L402.022 77.0017ZM428.704 227.673C432.191 230.114 436.464 231.335 441.521 231.335C449.892 231.335 458.96 228.283 468.726 222.18C478.491 215.902 487.124 207.793 494.622 197.853C501.423 188.959 506.655 180.239 510.317 171.694C513.979 163.149 515.81 153.82 515.81 143.705C515.81 140.217 515.549 136.555 515.026 132.719C513.282 120.163 510.056 109.525 505.347 100.806C480.933 115.454 461.663 130.277 447.538 145.275C439.516 153.645 433.063 163.76 428.181 175.618C423.298 187.302 420.856 197.94 420.856 207.531C420.856 217.297 423.472 224.011 428.704 227.673ZM593.684 246.507C603.799 243.193 610.687 238.834 614.349 233.428C618.186 227.847 620.104 219.913 620.104 209.624V99.4978C620.104 89.2089 618.186 81.3614 614.349 75.9554C610.687 70.375 603.799 65.9281 593.684 62.6147L594.73 55.2904C609.553 56.5112 622.022 57.1215 632.137 57.1215C644.344 57.1215 658.731 56.6855 675.298 55.8136C677.39 55.6392 680.529 55.552 684.715 55.552C706.339 55.552 722.906 59.6501 734.415 67.8464C745.925 76.0426 751.68 87.5522 751.68 102.375C751.68 113.885 747.843 123.825 740.17 132.196C732.497 140.566 720.813 147.803 705.118 153.907L733.892 198.114C741.042 209.101 747.146 217.558 752.203 223.488C757.26 229.417 761.969 233.951 766.328 237.09C770.688 240.229 776.094 243.193 782.546 245.984L778.623 253.308C771.473 252.61 763.538 252.262 754.819 252.262C746.448 252.262 739.734 252.61 734.677 253.308C722.295 224.534 704.595 193.842 681.576 161.231L643.646 171.433V209.624C643.646 219.913 645.477 227.76 649.14 233.166C652.976 238.572 659.952 243.019 670.066 246.507L669.02 253.831C656.987 252.61 644.693 252 632.137 252C622.022 252 609.553 252.61 594.73 253.831L593.684 246.507ZM669.02 153.907C686.807 149.198 700.235 142.484 709.303 133.765C718.372 125.046 722.906 115.193 722.906 104.206C722.906 90.7784 718.023 81.187 708.257 75.4322C698.666 69.5031 684.627 66.5385 666.142 66.5385C658.295 66.5385 650.796 66.8872 643.646 67.5848V160.708L669.02 153.907ZM827.197 246.507C836.614 244.24 843.764 241.537 848.647 238.398C853.704 235.259 857.105 231.509 858.848 227.15C860.592 222.616 861.464 216.774 861.464 209.624V97.1435C861.464 86.6803 859.633 79.0944 855.971 74.3859C852.483 69.5031 846.031 67.0616 836.614 67.0616C822.14 67.0616 811.066 72.2061 803.393 82.495C795.894 92.7838 791.099 108.479 789.006 129.58H781.682L780.112 55.552C799.469 56.424 830.51 56.9471 873.235 57.1215H889.977C911.775 57.1215 937.149 56.5983 966.097 55.552L964.789 129.58H957.465C955.372 108.479 950.489 92.7838 942.816 82.495C935.318 72.2061 924.331 67.0616 909.857 67.0616C900.44 67.0616 893.9 69.5031 890.238 74.3859C886.751 79.0944 885.007 86.6803 885.007 97.1435V209.624C885.007 216.774 885.879 222.616 887.622 227.15C889.366 231.509 892.68 235.259 897.563 238.398C902.62 241.537 909.857 244.24 919.274 246.507L918.228 253.831C898.871 252.61 883.96 252 873.497 252C865.475 252 850.391 252.61 828.243 253.831L827.197 246.507ZM1126.04 246.507C1136.15 243.193 1143.04 238.834 1146.71 233.428C1150.54 227.847 1152.46 219.913 1152.46 209.624V160.446H1034.49V209.624C1034.49 219.913 1036.32 227.76 1039.98 233.166C1043.82 238.572 1050.79 243.019 1060.91 246.507L1059.86 253.831C1047.83 252.61 1035.53 252 1022.98 252C1012.86 252 1000.39 252.61 985.571 253.831L984.524 246.507C994.639 243.193 1001.53 238.834 1005.19 233.428C1009.03 227.847 1010.94 219.913 1010.94 209.624V99.4978C1010.94 89.2089 1009.03 81.3614 1005.19 75.9554C1001.53 70.375 994.639 65.9281 984.524 62.6147L985.571 55.2904C1000.39 56.5112 1012.86 57.1215 1022.98 57.1215C1035.53 57.1215 1047.83 56.5112 1059.86 55.2904L1060.91 62.6147C1050.79 66.1025 1043.82 70.5494 1039.98 75.9554C1036.32 81.3614 1034.49 89.2089 1034.49 99.4978V147.367H1152.46V99.4978C1152.46 89.2089 1150.54 81.3614 1146.71 75.9554C1143.04 70.375 1136.15 65.9281 1126.04 62.6147L1127.09 55.2904C1141.91 56.5112 1154.38 57.1215 1164.49 57.1215C1177.05 57.1215 1189.34 56.5112 1201.38 55.2904L1202.42 62.6147C1192.31 66.1025 1185.33 70.5494 1181.5 75.9554C1177.83 81.3614 1176 89.2089 1176 99.4978V209.624C1176 219.913 1177.83 227.76 1181.5 233.166C1185.33 238.572 1192.31 243.019 1202.42 246.507L1201.38 253.831C1189.34 252.61 1177.05 252 1164.49 252C1154.38 252 1141.91 252.61 1127.09 253.831L1126.04 246.507ZM311.005 573.234C318.504 597.125 328.357 614.302 340.564 624.766C352.945 635.229 366.635 640.46 381.632 640.46C394.711 640.46 405.087 637.845 412.761 632.613C420.608 627.381 424.532 620.667 424.532 612.471C424.532 605.67 422.526 599.479 418.515 593.899C414.504 588.318 408.052 582.825 399.158 577.419C390.265 571.839 378.319 565.822 363.322 559.37C343.093 550.651 328.357 541.321 319.114 531.381C310.046 521.441 305.512 510.105 305.512 497.375C305.512 486.912 308.564 478.018 314.667 470.694C320.771 463.195 328.706 457.615 338.471 453.953C348.411 450.116 358.787 448.198 369.6 448.198C374.831 448.198 379.278 448.459 382.94 448.983C386.777 449.506 391.485 450.29 397.066 451.337C403.169 452.557 408.924 453.517 414.33 454.214C419.736 454.737 426.45 454.999 434.472 454.999C433.6 463.021 433.164 472.438 433.164 483.25C433.164 494.759 433.774 505.92 434.995 516.732L428.979 518.04C423.049 497.637 414.33 482.639 402.82 473.048C391.485 463.457 379.278 458.661 366.199 458.661C356.084 458.661 347.278 461.364 339.779 466.77C332.281 472.002 328.531 478.716 328.531 486.912C328.531 496.852 332.891 505.746 341.61 513.593C350.33 521.441 364.455 529.724 383.987 538.444C399.681 545.419 411.976 551.959 420.87 558.062C429.938 564.166 436.564 570.618 440.75 577.419C444.935 584.22 447.028 592.068 447.028 600.962C447.028 616.482 441.011 628.689 428.979 637.583C417.12 646.477 398.897 650.924 374.308 650.924C361.752 650.924 349.632 650.139 337.948 648.569C326.264 647 313.97 644.21 301.065 640.199C302.809 635.665 304.117 629.823 304.989 622.673C306.035 615.349 306.558 607.85 306.558 600.177C306.558 590.934 305.861 582.651 304.466 575.327L311.005 573.234ZM570.425 650.924C552.114 650.924 535.286 646.564 519.94 637.845C504.768 628.951 492.735 616.744 483.841 601.223C474.948 585.703 470.501 568.351 470.501 549.168C470.501 530.858 474.948 514.029 483.841 498.683C492.909 483.163 505.029 470.868 520.201 461.8C535.547 452.732 552.289 448.198 570.425 448.198C588.561 448.198 605.215 452.557 620.387 461.277C635.733 469.996 647.853 482.116 656.747 497.637C665.815 512.983 670.349 530.16 670.349 549.168C670.349 567.654 665.815 584.656 656.747 600.177C647.853 615.697 635.733 628.079 620.387 637.321C605.041 646.39 588.387 650.924 570.425 650.924ZM602.861 634.182C615.591 629.648 625.444 621.452 632.42 609.594C639.57 597.735 643.145 583.784 643.145 567.741C643.145 550.999 639.483 534.433 632.158 518.04C624.66 501.125 613.848 487.609 599.722 477.495C585.597 467.38 570.948 462.323 555.776 462.323C549.15 462.323 542.697 463.37 536.419 465.462C524.561 469.648 515.318 477.757 508.692 489.789C502.239 501.648 499.013 515.599 499.013 531.642C499.013 547.86 502.152 563.904 508.43 579.773C512.964 591.283 519.068 601.398 526.741 610.117C534.588 618.836 543.308 625.637 552.899 630.52C562.665 635.229 572.605 637.583 582.719 637.583C589.869 637.583 596.583 636.45 602.861 634.182ZM686.03 641.507C696.493 636.798 703.73 631.392 707.741 625.289C711.752 619.185 713.757 610.553 713.757 599.392V510.193C713.757 499.206 712.885 490.487 711.142 484.035C709.398 477.582 706.608 472.438 702.771 468.601C698.934 464.59 693.354 460.928 686.03 457.615L687.076 450.29C699.283 451.511 707.218 452.122 710.88 452.122C715.589 452.122 721.954 451.424 729.976 450.029L861.028 604.624V499.729C861.028 491.882 860.156 485.517 858.412 480.634C856.843 475.577 853.791 471.304 849.257 467.816C844.723 464.154 838.096 460.754 829.377 457.615L830.423 450.29C844.025 451.511 855.971 452.122 866.26 452.122C874.63 452.122 884.832 451.511 896.865 450.29L897.911 457.615C887.622 462.323 880.647 467.729 876.985 473.833C873.322 479.762 871.491 488.394 871.491 499.729V647.262L863.382 651.97L724.221 487.697V599.392C724.221 607.24 725.005 613.605 726.575 618.488C728.319 623.37 731.458 627.643 735.992 631.305C740.526 634.793 747.153 638.193 755.872 641.507L754.826 648.831C738.956 647.61 726.226 647 716.635 647C712.101 647 707.567 647.174 703.033 647.523C698.673 647.872 693.354 648.308 687.076 648.831L686.03 641.507ZM1009.45 650.924C991.317 650.924 974.924 646.477 960.276 637.583C945.802 628.515 934.379 616.221 926.009 600.7C917.638 585.179 913.453 568.089 913.453 549.43C913.453 531.294 917.987 514.465 927.055 498.945C936.123 483.424 948.156 471.13 963.153 462.062C978.325 452.819 994.63 448.198 1012.07 448.198C1018.35 448.198 1024.54 448.634 1030.64 449.506C1036.74 450.378 1043.63 451.686 1051.31 453.429C1063.69 456.045 1072.67 457.353 1078.25 457.353C1084.7 457.353 1090.19 456.045 1094.73 453.429L1099.44 456.045C1096.3 468.427 1093.86 479.849 1092.11 490.312C1090.37 500.776 1089.67 510.803 1090.02 520.394L1083.48 521.179C1077.73 500.253 1068.31 484.645 1055.23 474.356C1042.15 464.067 1026.98 458.923 1009.71 458.923C996.461 458.923 984.603 462.41 974.14 469.386C963.676 476.361 955.48 486.04 949.551 498.422C943.622 510.629 940.657 524.405 940.657 539.751C940.657 556.318 944.058 571.316 950.859 584.744C957.834 598.171 967.6 608.722 980.156 616.395C992.886 624.068 1007.36 627.905 1023.58 627.905C1034.22 627.905 1044.16 625.986 1053.4 622.15C1062.82 618.139 1070.31 612.733 1075.9 605.932C1081.65 599.131 1084.53 591.719 1084.53 583.697C1084.53 573.931 1079.47 565.997 1069.36 559.893C1059.24 553.79 1040.06 550.738 1011.81 550.738V540.275H1100.22L1102.05 647H1091.59L1087.4 608.547C1081.65 620.929 1071.45 631.131 1056.8 639.153C1042.33 647 1026.54 650.924 1009.45 650.924Z" fill="white"/>
<path d="M844.816 419.267C844.816 419.267 844.761 419.267 844.705 419.267C842.256 419.267 840.196 418.766 839.806 418.155L772.448 296.512L746.674 359.835C746.451 360.391 744.837 360.836 742.666 360.947C740.495 361.058 738.324 360.836 737.266 360.335L694.18 340.933L667.181 356.666C666.346 357.166 664.342 357.444 662.226 357.444C660.111 357.444 658.274 357.055 657.717 356.499L648.365 347.826L596.316 391.858C595.648 392.414 593.421 392.803 591.083 392.748C588.689 392.748 586.797 392.247 586.518 391.636L567.814 352.33L539.089 370.343C538.254 370.898 536.083 371.176 533.857 371.121C531.63 371.065 529.793 370.621 529.459 370.065L500.345 321.474L428.199 400.197C427.643 400.809 425.416 401.254 422.967 401.198C420.517 401.198 418.513 400.698 418.291 400.031L374.981 292.342L334.177 352.608C333.787 353.164 332.117 353.553 330.002 353.664C327.886 353.775 325.771 353.497 324.769 352.997L300.943 341.822L251.399 363.115C250.341 363.56 248.282 363.838 246.222 363.727C244.162 363.615 242.548 363.226 242.102 362.726L217.72 331.704L186.713 354.72C186.045 355.221 184.097 355.554 181.981 355.554C179.866 355.554 177.918 355.276 177.25 354.776L161.273 343.323H83.6165C80.8332 343.323 78.5508 342.712 78.5508 342.044C78.5508 341.377 80.8332 340.766 83.6165 340.766H164.78C166.895 340.766 168.844 341.044 169.512 341.6L181.87 350.495L214.213 326.422C214.937 325.866 217.052 325.533 219.334 325.533C221.617 325.533 223.509 325.977 223.955 326.533L249.395 358.945L296.768 338.598C297.714 338.208 299.384 337.93 301.221 337.986C303.059 337.986 304.673 338.264 305.564 338.653L326.662 348.605L371.251 282.78C371.697 282.168 373.868 281.668 376.373 281.723C378.878 281.723 380.938 282.224 381.216 282.891L425.193 392.247L496.448 314.525C497.005 313.913 499.12 313.524 501.569 313.524C503.963 313.524 505.967 314.024 506.357 314.636L536.64 365.228L565.81 346.937C566.645 346.381 568.872 346.047 571.154 346.159C573.436 346.214 575.218 346.714 575.496 347.27L593.644 385.465L643.8 343.045C644.413 342.489 646.417 342.156 648.643 342.156H648.699C650.926 342.156 652.93 342.489 653.486 343.045L663.729 352.496L689.058 337.764C689.837 337.319 691.508 337.041 693.4 336.985C695.293 336.985 697.13 337.208 698.021 337.652L738.324 355.777L766.715 286.004C766.993 285.337 769.108 284.892 771.613 284.837C774.174 284.837 776.345 285.282 776.679 285.949L845.484 410.26L913.9 317.694C914.345 317.082 916.516 316.637 918.966 316.637C921.415 316.637 923.475 317.138 923.864 317.749L958.156 378.682L1024.29 334.261C1025.01 333.816 1026.68 333.483 1028.69 333.427C1030.64 333.427 1032.53 333.65 1033.47 334.094L1060.58 346.992L1089.92 336.04C1090.98 335.651 1092.76 335.429 1094.6 335.484C1096.43 335.484 1098.05 335.818 1098.77 336.263L1145.64 364.227L1179.43 338.876C1180.1 338.375 1182.05 337.986 1184.22 337.986C1186.39 337.986 1188.29 338.375 1189.01 338.876L1210.16 354.498L1250.52 342.6C1251.47 342.322 1252.86 342.156 1254.36 342.156H1304.52C1307.3 342.156 1309.59 342.767 1309.59 343.434C1309.59 344.102 1307.3 344.713 1304.52 344.713H1256.7L1212.17 357.834C1211 358.167 1209.16 358.334 1207.38 358.223C1205.6 358.112 1204.15 357.834 1203.54 357.389L1184.33 343.212L1151.04 368.174C1150.38 368.675 1148.54 369.008 1146.48 369.064C1144.42 369.064 1142.47 368.786 1141.64 368.286L1093.21 339.431L1064.37 350.217C1063.37 350.606 1061.7 350.773 1059.92 350.773C1058.13 350.773 1056.58 350.495 1055.74 350.106L1029.91 337.819L960.772 384.297C959.937 384.853 957.766 385.187 955.484 385.131C953.201 385.075 951.364 384.631 951.03 384.019L918.298 325.811L849.826 418.433C849.381 419.044 847.266 419.489 844.872 419.489L844.816 419.267Z" fill="white"/>
</g>
<defs>
<clipPath id="clip0_72_8">
<rect width="1403" height="689" fill="white"/>
</clipPath>
</defs>
</svg>
