<svg width="294" height="294" viewBox="0 0 294 294" fill="none" xmlns="http://www.w3.org/2000/svg">
<g clip-path="url(#clip0_94_8)">
<rect width="294" height="294" fill="black" fill-opacity="0.97"/>
<path d="M147.126 214.119L59.3399 277.104L54.616 273.561L88.0771 171.997L0.684598 109.405L2.25924 103.5H110.516L144.37 1.54235H150.669L184.13 103.894H291.206L293.174 109.799L206.569 171.603L240.03 273.955L235.306 277.498L147.126 214.119ZM146.732 201.128C159.854 201.128 171.008 196.535 180.194 187.35C189.641 177.902 194.365 166.617 194.365 153.495C194.365 140.111 189.641 128.826 180.194 119.64C171.008 110.455 159.854 105.862 146.732 105.862C133.348 105.862 121.932 110.455 112.484 119.64C103.299 128.826 98.7059 140.111 98.7059 153.495C98.7059 166.617 103.299 177.902 112.484 187.35C121.932 196.535 133.348 201.128 146.732 201.128Z" fill="white"/>
</g>
<defs>
<clipPath id="clip0_94_8">
<rect width="294" height="294" fill="white"/>
</clipPath>
</defs>
</svg>
