<svg width="294" height="294" viewBox="0 0 294 294" fill="none" xmlns="http://www.w3.org/2000/svg">
<g clip-path="url(#clip0_94_8)">
<path d="M146.847 220.341L231.109 281.197L242.272 272.915L210.224 175.329L293.766 115.194L290.165 101.51H186.098L153.689 3.92465H139.285L107.237 101.87H4.24995L-0.0711866 115.554L82.7505 174.969L50.7021 273.275L62.2251 281.557L146.847 220.341ZM196.54 170.648L227.148 264.273L146.847 206.658L65.8261 264.633L96.4341 170.288L16.4931 113.393H115.519L146.487 18.3284L177.815 113.033H277.922L196.54 170.648ZM147.567 198.376C135.564 198.376 125.362 194.174 116.959 185.772C108.317 177.13 103.996 166.807 103.996 154.804C103.996 142.561 108.317 132.238 116.959 123.836C125.362 115.434 135.564 111.233 147.567 111.233C159.811 111.233 170.253 115.434 178.896 123.836C187.298 132.238 191.499 142.561 191.499 154.804C191.499 166.807 187.298 177.13 178.896 185.772C170.253 194.174 159.811 198.376 147.567 198.376Z" fill="white"/>
</g>
<defs>
<clipPath id="clip0_94_8">
<rect width="294" height="294" fill="white"/>
</clipPath>
</defs>
</svg>
