<svg width="323" height="323" viewBox="0 0 323 323" fill="none" xmlns="http://www.w3.org/2000/svg">
<g clip-path="url(#clip0_118_8)">
<rect width="323" height="323" fill="black"/>
<g clip-path="url(#clip1_118_8)">
<path fill-rule="evenodd" clip-rule="evenodd" d="M282.975 158.711C282.917 158.634 282.861 158.491 282.801 158.491C280.032 158.416 277.261 158.361 274.492 158.289C272.93 158.248 271.368 158.198 269.809 158.112C269.414 158.091 268.842 157.7 268.67 157.848C267.545 158.814 266.667 158.118 265.815 157.562C265.415 157.865 265.054 158.139 264.728 158.385C263.975 158.009 263.293 157.669 262.638 157.342C262.325 157.742 262.039 158.111 261.65 158.611C260.548 156.77 259.426 157.816 258.278 158.468C258.054 158.062 257.873 157.735 257.662 157.353C256.802 157.624 255.975 157.885 255.281 158.103C254.957 157.784 254.71 157.541 254.464 157.298C254.024 158.302 252.989 156.762 252.504 157.732C252.497 157.746 251.944 157.377 251.657 157.393C251.342 157.409 251.039 157.663 250.675 157.841C250.572 157.451 250.476 157.091 250.395 156.786C249.625 156.616 249.092 156.7 249.009 157.528C248.373 157.027 248.35 158.138 247.729 157.926C247.64 157.702 247.527 157.401 247.407 157.1C247.351 157.118 247.279 157.136 247.247 157.154V159.08C247.152 159.088 247.072 159.086 246.988 159.074C246.941 158.159 246.89 157.244 246.843 156.33C245.968 157.166 245.195 157.669 244.083 157.053C243.948 156.664 243.79 156.208 243.654 155.812C243.063 156.428 242.506 157.01 242.026 157.51C241.56 156.969 241.081 156.42 240.624 155.892C240.113 156.45 239.765 156.851 239.165 157.477V159.061C239.102 159.07 239.031 159.071 238.961 159.066C238.851 157.983 238.743 156.902 238.601 155.499C238.27 156.254 238.094 156.656 237.877 157.153C237.629 156.436 237.435 155.876 237.241 155.317C237.142 155.34 237.043 155.362 236.943 155.385C236.878 155.83 236.813 156.275 236.713 156.959C236.563 156.466 236.498 156.249 236.426 156.012C236.222 156.179 236.066 156.307 235.741 156.574C235.679 155.496 235.631 154.648 235.582 153.799C235.517 153.799 235.453 153.798 235.387 153.796C235.225 154.783 235.063 155.771 234.841 157.13C234.51 156.179 234.291 155.566 234.077 154.954C234.007 154.961 233.955 154.969 233.861 154.977V157.264C233.797 157.268 233.746 157.271 233.685 157.274C233.576 156.656 233.47 156.038 233.361 155.42C233.284 155.436 233.208 155.453 233.131 155.469C232.981 156.273 232.832 157.077 232.682 157.881C232.558 156.128 232.948 154.33 232.211 152.496C232.079 153.978 231.959 155.333 231.838 156.687C231.738 156.682 231.638 156.676 231.538 156.671C231.376 156.107 231.21 155.545 231.048 154.981C230.956 154.992 230.861 155.002 230.767 155.013V157.337C230.641 157.334 230.516 157.333 230.388 157.33C230.339 156.424 230.292 155.52 230.24 154.553C230.041 154.73 229.927 154.833 229.788 154.957C229.623 153.545 229.465 152.199 229.273 150.551C229.115 152.229 228.989 153.594 228.861 154.96C228.743 155.645 228.625 156.329 228.506 157.014C228.428 157.005 228.35 156.996 228.272 156.987C228.232 156.319 228.194 155.651 228.144 154.813C227.835 155.752 227.609 156.477 227.357 157.203V154.552C226.378 154.879 226.437 154.242 226.429 153.705C226.414 152.472 226.424 151.241 226.424 150.008C225.975 152.055 225.752 154.098 225.544 156.142C225.498 156.601 225.497 157.063 225.476 157.525C225.439 157.522 225.401 157.518 225.364 157.513C225.241 156.649 225.117 155.786 224.993 154.921C224.893 154.934 224.792 154.947 224.692 154.96C224.66 155.533 224.627 156.105 224.595 156.677C224.531 156.679 224.466 156.68 224.402 156.682C224.361 155.751 224.32 154.821 224.279 153.89C224.143 153.895 224.007 153.9 223.872 153.905C223.801 154.716 223.732 155.526 223.661 156.336C223.524 156.33 223.379 156.324 223.253 156.317V149.108C223.126 149.109 223.037 149.112 222.93 149.114C222.718 152.129 222.513 155.144 222.301 158.16C222.196 158.154 222.085 158.149 221.99 158.143V155.813C220.759 155.576 220.217 154.991 220.198 153.884C220.175 152.571 220.189 151.258 220.189 149.946C219.468 151.874 219.785 154.054 218.363 155.73C218.234 155.166 218.104 154.601 217.974 154.03C217.792 154.344 217.601 154.66 217.416 154.977C217.333 154.963 217.256 154.95 217.161 154.937V149.566C216.751 151.261 216.343 152.811 215.864 154.698C215.748 154.019 215.696 153.693 215.608 153.17C215.149 153.972 214.784 154.615 214.286 155.487C214.143 153.578 214.351 151.935 214.138 150.332C214.001 150.336 213.864 150.34 213.727 150.345C213.679 151.244 213.627 152.143 213.579 153.043C213.491 153.036 213.405 153.03 213.311 153.022V150.234C213.279 150.232 213.22 150.23 213.173 150.228C213.073 150.791 212.973 151.354 212.834 152.119C212.523 151.701 212.402 151.538 212.341 151.455C212.022 152.697 211.7 153.949 211.34 155.346C209.648 152.546 210.807 149.508 210.193 146.739C210.052 146.747 209.901 146.754 209.775 146.762V152.439C209.68 152.434 209.628 152.43 209.557 152.426C209.493 151.704 209.428 150.983 209.365 150.262C209.21 150.27 209.055 150.277 208.901 150.286C208.698 152.922 208.493 155.558 208.29 158.195C208.192 157.577 208.019 156.96 208.011 156.34C207.978 153.908 208.003 151.475 208.003 149.042C207.898 149.042 207.787 149.042 207.693 149.044V157.26C207.598 157.26 207.516 157.262 207.431 157.262C207.284 153.94 207.134 150.619 206.988 147.297C206.934 147.299 206.878 147.3 206.824 147.301C206.735 149.261 206.645 151.221 206.555 153.18C206.479 153.278 206.403 153.376 206.327 153.474C206.302 153.436 206.254 153.398 206.254 153.36C206.25 152.303 206.25 151.246 206.25 150.19C206.123 150.186 205.996 150.184 205.868 150.18C205.782 151.191 205.706 152.203 205.607 153.213C205.434 154.965 205.247 156.714 205.065 158.465C205.038 155.313 205.013 152.16 204.987 149.008C204.819 149.002 204.652 148.997 204.485 148.992C204.341 151.227 204.481 153.486 204.389 155.726C204.281 155.721 204.189 155.717 204.062 155.713V144.043C203.715 146.8 203.626 149.557 203.516 152.312C203.493 152.884 203.336 153.451 203.241 154.021V151.981C203.115 151.974 202.979 151.968 202.848 151.962C202.677 152.941 202.505 153.919 202.334 154.897C202.238 154.427 202.103 153.96 202.053 153.485C201.898 151.996 201.767 150.505 201.633 149.014C201.582 149.017 201.536 149.019 201.474 149.022V159.102C201.379 159.102 201.231 159.103 201.105 159.104C201.117 154.91 201.145 150.716 201.13 146.522C201.128 145.98 200.924 145.438 200.812 144.895C200.556 147.31 200.576 149.677 200.544 152.042C200.536 152.611 200.359 153.179 200.26 153.747C200.148 152.957 200.037 152.167 199.924 151.377C199.852 151.388 199.779 151.399 199.707 151.41C199.593 152.475 199.479 153.54 199.365 154.605C199.268 154.037 199.114 153.47 199.088 152.9C199.043 151.893 199.076 150.883 199.076 149.874C198.944 149.87 198.812 149.866 198.68 149.864C198.238 152.611 198.639 155.419 198.297 158.179C198.152 153.853 198.008 149.527 197.863 145.203C197.587 147.826 197.603 150.443 197.574 153.06C197.567 153.689 197.405 154.318 197.315 154.946C197.208 154.442 197.031 153.942 197.009 153.436C196.962 152.338 196.994 151.236 196.994 150.136C196.89 150.136 196.785 150.136 196.681 150.136C196.681 150.855 196.703 151.575 196.655 152.291C196.648 152.392 196.294 152.472 196.102 152.561C196.004 151.992 195.834 151.424 195.82 150.853C195.781 149.245 195.806 147.636 195.806 146.027C195.734 146.027 195.662 146.027 195.59 146.027C195.432 149.174 195.274 152.32 195.116 155.466C195.046 155.464 194.975 155.462 194.905 155.459C194.905 154.972 194.905 154.486 194.905 153.999C194.905 150.186 194.911 146.375 194.895 142.564C194.893 142.098 194.766 141.632 194.699 141.167C194.571 141.185 194.437 141.202 194.311 141.221V142.675C194.311 145.645 194.327 148.615 194.3 151.585C194.296 152.103 194.118 152.621 194.019 153.139C193.943 150.943 193.868 148.747 193.792 146.55C193.694 146.551 193.597 146.552 193.499 146.553C193.376 149.146 193.251 151.739 193.128 154.331C193.027 153.765 192.845 153.199 192.84 152.631C192.814 148.966 192.829 145.3 192.829 141.634V139.792C192.45 142.499 192.302 145.204 192.247 147.91C192.191 150.618 192.233 153.33 192.233 156.039C192.166 156.037 192.097 156.036 192.03 156.035C191.88 151.01 191.727 145.986 191.576 140.962C191.489 140.962 191.407 140.962 191.313 140.962V153.66C191.25 153.659 191.184 153.658 191.118 153.657C190.962 151.109 190.807 148.562 190.651 146.014C190.624 146.013 190.599 146.012 190.573 146.01C190.436 147.88 190.299 149.752 190.163 151.623C189.586 148.868 190.281 146.049 189.396 143.343C189.296 143.538 189.269 143.731 189.263 143.924C189.159 147.033 189.065 150.144 188.943 153.252C188.928 153.625 188.755 153.992 188.66 154.362V143.385C188.566 143.385 188.466 143.386 188.368 143.387C188.368 144.915 188.428 146.447 188.359 147.973C188.29 149.512 188.693 151.104 187.777 152.579V144.793C187.714 144.793 187.66 144.792 187.605 144.791C187.46 146.486 187.317 148.181 187.172 149.876C186.652 147.906 187.271 145.845 186.23 143.935V154.203C186.041 154.206 185.892 154.208 185.724 154.209C185.64 150.31 185.734 146.403 185.513 142.505C185.27 144.967 185.194 147.427 185.087 149.886C185.062 150.46 184.904 151.027 184.81 151.598V146.922C184.684 146.925 184.557 146.928 184.431 146.931V153.074C183.105 150.62 183.838 147.955 183.359 145.41C182.803 149.473 183.165 153.566 182.825 157.636C182.701 154.049 182.573 150.464 182.449 146.877C182.333 146.877 182.221 146.879 182.095 146.88V151.701C181.842 151.213 181.823 150.729 181.823 150.246C181.823 147.423 181.843 144.601 181.81 141.78C181.802 141.1 181.625 140.423 181.525 139.745C181.46 139.755 181.397 139.765 181.331 139.776C181.211 143.355 181.091 146.932 180.97 150.511C180.897 150.51 180.824 150.509 180.751 150.508C180.61 147.917 180.469 145.325 180.328 142.734C180.233 142.735 180.137 142.736 180.043 142.737V144.131C180.043 148.389 180.055 152.647 180.032 156.905C180.028 157.638 179.87 158.369 179.783 159.1C179.749 159.194 179.748 159.289 179.78 159.383C179.734 159.529 179.692 159.676 179.564 160.088C179.482 159.558 179.444 159.326 179.412 159.093V145.759C179.317 145.759 179.191 145.758 179.096 145.757V152.227C178.655 149.255 179.221 146.236 178.354 143.304C178.253 146.212 178.269 149.118 178.241 152.022C178.236 152.588 178.063 153.152 177.967 153.717C177.965 152.379 178.027 151.036 177.948 149.703C177.778 146.856 177.535 144.014 177.321 141.169C177.116 141.4 177.074 141.631 177.07 141.862C176.981 147.699 176.897 153.535 176.811 159.371C176.775 159.795 176.739 160.219 176.702 160.643C176.647 160.643 176.596 160.642 176.54 160.641C176.507 160.123 176.477 159.605 176.445 159.087V149.028C176.319 149.029 176.224 149.03 176.13 149.032V151.047C176.003 151.045 175.909 151.044 175.802 151.042C175.699 146.679 175.594 142.316 175.491 137.953C175.421 137.953 175.341 137.954 175.278 137.955V152.295C175.183 152.295 175.089 152.295 174.993 152.296V141.531C174.899 141.53 174.804 141.528 174.709 141.527V144.525C174.425 144.103 174.326 143.926 174.213 143.748C174.104 143.747 173.984 143.744 173.888 143.742V149.229C173.794 149.222 173.711 149.214 173.627 149.207C173.485 148.309 173.332 147.412 173.191 146.516C173.091 146.524 173.005 146.532 172.878 146.541V153.174C172.784 153.174 172.689 153.174 172.563 153.174V140.7C172.468 140.702 172.342 140.704 172.247 140.706V143.017C172.185 143.014 172.156 143.01 172.11 143.008C171.949 141.32 171.788 139.633 171.626 137.946C171.558 137.947 171.488 137.948 171.42 137.949C171.42 138.437 171.42 138.924 171.42 139.411C171.42 143.424 171.431 147.436 171.406 151.449C171.402 152.014 171.219 152.578 171.12 153.142C171.117 151.662 171.112 150.182 171.109 148.702C170.97 148.698 170.833 148.694 170.695 148.69C170.52 150.095 170.349 151.498 170.173 152.901C170.095 152.896 170.005 152.891 169.941 152.886V148.626C169.879 148.615 169.821 148.604 169.761 148.593C169.679 148.838 169.594 149.082 169.511 149.327C169.438 149.328 169.363 149.33 169.291 149.331C169.08 145.251 168.868 141.172 168.657 137.091C168.574 141.609 168.577 146.113 167.315 150.435C167.28 150.182 167.226 149.83 167.138 149.194C166.953 150.605 166.816 151.704 166.657 152.804V139.815C166.499 139.816 166.342 139.817 166.152 139.818V151.678C166.026 151.678 165.899 151.678 165.742 151.678V144.459C165.363 147.457 165.817 150.528 164.674 153.338C164.533 149.244 164.396 145.056 164.251 140.889H163.943V150.756C163.849 150.756 163.754 150.755 163.628 150.754V147.202C163.596 147.205 163.54 147.207 163.494 147.21C163.337 148.898 163.182 150.587 163.024 152.277C162.792 151.783 162.826 151.295 162.783 150.815C162.74 150.343 162.621 149.877 162.534 149.409C162.423 149.418 162.312 149.427 162.2 149.436C162.05 149.914 161.9 150.392 161.749 150.871C161.653 150.869 161.556 150.866 161.461 150.865C161.383 149.616 161.305 148.368 161.227 147.12C161.005 148.936 161.026 150.748 160.992 152.56C160.981 153.131 160.824 153.7 160.734 154.27C160.626 149.185 160.519 144.099 160.408 139.013C160.402 138.766 160.352 138.519 160.319 138.273C160.242 138.278 160.158 138.284 160.094 138.289V151.657C160.03 151.657 159.979 151.657 159.926 151.657C159.819 147.978 159.714 144.299 159.607 140.62C159.495 140.622 159.368 140.623 159.273 140.625V159.101C159.241 159.194 159.236 159.288 159.27 159.379C159.224 159.533 159.176 159.686 159.049 160.118C158.965 159.569 158.927 159.329 158.891 159.09C158.902 157.853 158.921 156.616 158.924 155.379C158.929 153.548 158.866 151.713 158.935 149.885C159.006 148.017 157.514 146.566 157.63 144.702C157.635 144.616 157.442 144.517 157.126 144.249V152.888C157.063 152.888 156.966 152.886 156.884 152.885C156.734 149.294 156.586 145.702 156.436 142.11C156.408 142.111 156.382 142.113 156.355 142.114C156.198 145.191 156.043 148.267 155.887 151.344C155.794 151.341 155.706 151.337 155.61 151.334V138.241C155.547 138.241 155.489 138.241 155.428 138.241C155.271 141.13 155.113 144.018 154.941 147.173C154.763 145.787 154.619 144.684 154.478 143.579C154.367 142.4 154.727 141.151 153.811 139.74V149.827C153.717 149.826 153.622 149.824 153.559 149.823V140.359C153.496 140.357 153.446 140.356 153.392 140.354C153.238 142.251 153.08 144.147 152.925 146.044C152.878 146.048 152.829 146.052 152.782 146.054C152.712 145.64 152.642 145.225 152.573 144.809C152.336 145.771 152.661 146.891 152.259 147.601C151.659 148.665 151.814 149.679 151.791 150.722C151.745 152.752 151.796 154.786 151.772 156.817C151.765 157.347 151.628 157.876 151.551 158.405C151.529 156.973 151.541 155.539 151.477 154.109C151.415 152.711 151.28 151.317 151.174 149.922C151.072 149.927 150.969 149.934 150.875 149.939V154.347C150.812 154.349 150.756 154.351 150.698 154.354C150.533 152.944 150.366 151.533 150.2 150.124C150.13 150.127 150.053 150.131 149.99 150.135V155.275C149.927 155.275 149.879 155.275 149.826 155.275C149.677 152.463 149.53 149.651 149.381 146.84C149.278 146.84 149.169 146.841 149.075 146.842V151.085C149.011 151.082 148.947 151.078 148.885 151.074C148.837 150.884 148.786 150.694 148.738 150.504C148.665 149.919 148.601 149.333 148.514 148.751C148.42 148.124 148.293 147.501 148.185 146.875C148.074 146.886 147.97 146.898 147.844 146.909V151.905C147.812 151.902 147.772 151.898 147.733 151.894C147.583 149.547 147.438 147.198 147.289 144.85C147.027 148.321 147.046 151.782 147.018 155.242C147.014 155.736 146.803 156.226 146.708 156.719V147.806C146.645 147.806 146.566 147.806 146.498 147.805C146.461 148.514 146.422 149.223 146.367 150.259C146.178 149.683 146.096 149.437 146.015 149.192C145.933 149.195 145.85 149.198 145.768 149.201C145.575 151.618 145.382 154.035 145.188 156.451C145.092 156.462 144.995 156.472 144.898 156.482C144.674 155.348 144.45 154.216 144.205 152.979C144.101 153.284 144.018 153.53 143.865 153.979C143.697 150.888 143.545 148.003 143.388 145.118C143.314 145.121 143.235 145.124 143.172 145.126V151.044C141.815 151.008 142.583 149.714 142.068 149.133C141.951 149.266 141.773 149.371 141.772 149.478C141.743 152.681 141.73 155.885 141.715 159.088C141.677 159.58 141.638 160.073 141.6 160.565C141.544 160.56 141.488 160.556 141.433 160.551C141.403 160.063 141.373 159.575 141.343 159.087C141.346 154.776 141.352 150.464 141.347 146.153C141.347 146.018 141.254 145.88 141.193 145.749C141.175 145.711 141.121 145.684 141.077 145.665C141.033 145.646 140.983 145.645 140.784 145.607C140.784 147.754 140.804 149.875 140.772 151.995C140.763 152.564 140.594 153.131 140.5 153.699C140.494 152.563 140.546 151.424 140.455 150.295C140.41 149.731 140.098 149.188 139.909 148.636C139.778 148.666 139.638 148.696 139.512 148.726V153.773C139.354 153.625 139.326 153.48 139.287 153.342C139.256 153.234 139.196 153.135 139.148 153.032C139.077 153.039 139.006 153.045 138.934 153.051C138.822 154.169 138.71 155.286 138.598 156.403C138.57 156.398 138.542 156.395 138.514 156.39C138.361 154.304 138.209 152.219 138.057 150.133C137.814 152.253 137.834 154.367 137.8 156.48C137.791 157.044 137.619 157.606 137.521 158.17C137.431 155.496 137.341 152.821 137.252 150.147C137.108 150.143 136.964 150.137 136.82 150.133C136.752 151.129 136.686 152.125 136.619 153.121C135.771 152.991 136.046 152.307 136.032 151.828C135.993 150.389 136.018 148.948 136.018 147.508C135.876 147.502 135.734 147.497 135.592 147.491C135.51 148.691 135.431 149.89 135.349 151.09C135.284 151.09 135.218 151.09 135.155 151.09V145.689C135.061 145.689 134.981 145.687 134.894 145.686C134.741 148.956 134.585 152.226 134.432 155.496C134.409 155.494 134.386 155.491 134.364 155.487C134.216 152.507 134.07 149.527 133.923 146.545C133.779 146.539 133.636 146.532 133.492 146.526C133.162 148.421 133.514 150.382 133.04 152.288V149.587C132.978 149.589 132.918 149.591 132.856 149.593C132.753 151.385 132.656 153.178 132.553 154.97C132.419 154.966 132.282 154.961 132.156 154.957V148.367C131.745 150.386 131.792 152.469 130.955 154.365C130.842 154.352 130.735 154.338 130.609 154.326V151.368C130.451 150.83 130.179 150.304 130.093 149.751C129.933 148.708 129.87 147.65 129.766 146.597C129.505 147.032 129.514 147.797 129.356 147.833C128.186 148.1 128.677 148.944 128.639 149.603C128.495 149.646 128.227 149.736 128.223 149.725C128.035 149.235 127.754 148.742 127.725 148.236C127.654 147.009 127.702 145.775 127.702 144.545C127.438 144.737 127.408 144.929 127.405 145.121C127.384 146.407 127.743 147.855 127.271 148.945C126.396 150.966 126.559 152.992 126.493 155.047C126.48 155.446 126.372 155.842 126.31 156.24C126.177 156.23 126.062 156.22 125.904 156.21V150.496C125.841 150.498 125.746 150.5 125.651 150.502V159.088C125.525 159.088 125.399 159.089 125.272 159.09V155.746C125.052 156.22 124.988 156.352 124.837 156.666C124.641 155.482 124.475 154.455 124.305 153.429C124.226 153.435 124.135 153.441 124.073 153.447V156.395C123.82 155.204 123.873 154.02 123.815 152.841C123.762 151.73 124.073 150.558 123.587 149.501C123.467 149.509 123.346 149.517 123.22 149.525V152.876C123.188 152.876 123.111 152.876 123.054 152.876C122.758 150.906 122.469 148.937 122.174 146.968C122.121 146.971 122.084 146.973 122.021 146.975V152.574C121.737 151.703 121.798 150.825 121.738 149.956C121.678 149.126 121.504 148.304 121.349 147.263C120.719 149.385 121.895 151.512 120.396 153.387C120.294 152.974 120.224 152.689 120.164 152.442C119.094 153.73 119.397 155.245 119.368 156.703C119.352 157.495 119.355 158.287 119.351 159.08C119.263 159.09 119.177 159.084 119.093 159.06C118.823 157.426 118.55 155.791 118.28 154.157C118.16 154.159 118.045 154.16 117.918 154.163V158.165C117.792 158.161 117.666 158.159 117.539 158.156V150.781C117.476 150.782 117.429 150.783 117.375 150.784C117.148 151.764 116.922 152.746 116.696 153.727C116.683 153.43 116.789 153.024 116.636 152.857C115.909 152.065 116.198 151.114 116.078 150.218C115.976 149.462 115.659 148.738 115.517 147.984C115.431 147.531 115.501 147.049 115.501 146.58C115.389 146.571 115.275 146.562 115.162 146.553C115.079 147.113 114.933 147.671 114.923 148.233C114.886 150.212 114.895 152.192 114.879 154.171C114.879 154.228 114.781 154.284 114.778 154.288C114.555 154.013 114.329 153.734 113.937 153.251C113.675 154.454 113.49 155.307 113.28 156.267C113.11 155.03 112.952 153.91 112.798 152.791C112.695 152.798 112.614 152.806 112.487 152.813V155.847C112.393 155.847 112.298 155.847 112.204 155.847V152.838C112.172 152.84 112.113 152.841 112.064 152.844C111.936 153.648 111.812 154.451 111.684 155.256C111.551 155.24 111.415 155.226 111.288 155.21V152.562C111.226 152.565 111.167 152.568 111.107 152.571C111.059 153.159 111.02 153.747 110.973 154.335C110.887 154.33 110.784 154.326 110.721 154.322V151.347C110.627 151.349 110.582 151.351 110.517 151.353C110.473 152.054 110.426 152.757 110.382 153.46C110.139 152.283 110.024 151.113 109.824 149.957C109.786 149.736 109.403 149.574 109.181 149.384C109.044 149.596 108.908 149.807 108.765 150.028C108.575 149.655 108.392 149.298 108.21 148.941C108.143 148.956 108.07 148.97 108.007 148.984V153.433C107.944 153.431 107.893 153.43 107.835 153.429C107.791 153.016 107.747 152.603 107.703 152.191C106.875 154.465 107.265 156.793 107.214 159.095C107.181 159.19 107.182 159.283 107.216 159.377C107.187 160.063 107.158 160.749 107.128 161.435C107.032 160.653 106.935 159.869 106.84 159.086V151.483C106.682 151.475 106.541 151.466 106.391 151.458C106.335 152.53 106.279 153.6 106.223 154.672C106.18 154.669 106.137 154.666 106.095 154.663C106.02 154.418 105.947 154.172 105.846 153.837C105.723 154.191 105.642 154.435 105.557 154.678C105.49 154.669 105.42 154.66 105.357 154.651V148.37C105.262 148.358 105.188 148.346 105.106 148.333C104.701 149.547 104.295 150.763 103.89 151.977C102.911 149.995 103.583 147.781 103.196 145.598C103.003 146.227 102.838 146.755 102.677 147.282C102.583 147.268 102.483 147.253 102.389 147.239V142.709C102.263 142.702 102.157 142.695 102.039 142.687C101.965 143.292 101.834 143.897 101.83 144.504C101.809 147.725 101.821 150.947 101.821 154.169V155.504C101.726 155.5 101.6 155.497 101.474 155.494V146.869C101.442 146.87 101.386 146.871 101.338 146.872C101.197 149.781 101.061 152.69 100.914 155.715C99.5012 154.971 100.362 153.715 99.8793 152.832C99.6921 153.373 99.5167 153.864 99.3467 154.355C99.2685 154.347 99.2004 154.338 99.1058 154.329V149.255C99.0431 149.25 98.9777 149.246 98.9113 149.24C98.6159 149.838 98.3169 150.435 97.906 151.277V148.67C96.5799 148.813 97.4043 147.527 96.9971 147.218C96.7117 147.254 96.3781 147.308 96.3754 147.294C96.2881 146.865 96.1918 146.431 96.1808 145.995C96.1554 144.915 96.1727 143.832 96.1727 142.75C96.1081 142.753 96.0436 142.757 95.9791 142.759C95.82 144.351 95.66 145.942 95.4873 147.667C95.3083 147.382 95.221 147.243 95.0283 146.937C94.8711 150.216 94.7238 153.298 94.5766 156.379C94.5248 156.376 94.4729 156.375 94.422 156.372C94.3957 155.793 94.3693 155.214 94.3439 154.635C94.283 154.633 94.2212 154.631 94.1603 154.629C94.1194 155.434 94.0776 156.239 94.0367 157.043C93.9776 157.044 93.9176 157.045 93.8585 157.046C93.8149 156.334 93.7703 155.622 93.7267 154.909C93.6467 154.909 93.5813 154.909 93.4867 154.909V157.885C93.3922 157.884 93.2659 157.882 93.1713 157.882V151.13C93.1086 151.133 93.0514 151.136 92.995 151.139C92.835 152.891 92.6714 154.645 92.5114 156.397C92.4742 156.392 92.4351 156.387 92.3978 156.382C91.8288 152.135 91.2535 147.889 90.6845 143.642C90.6209 143.642 90.5518 143.642 90.4881 143.642V155.814C90.2673 155.624 90.2273 155.433 90.2227 155.242C90.1209 150.098 90.0255 144.954 89.921 139.81C89.9146 139.505 89.8655 139.2 89.8355 138.895C89.631 140.136 89.6437 141.368 89.6237 142.599C89.6183 142.93 89.5474 143.538 89.4538 143.548C88.4021 143.665 88.7557 144.452 88.7521 144.997C88.7266 148.318 88.7412 151.639 88.7348 154.96C88.7348 155.335 88.6912 155.709 88.6684 156.085C88.4412 155.577 88.4603 155.086 88.4348 154.596C88.4103 154.119 88.343 153.646 88.2931 153.171C88.1613 153.185 88.0258 153.199 87.8995 153.212V156.711C86.2261 154.645 87.3632 152.426 86.6997 150.488V159.085C86.6679 159.693 86.6324 160.301 86.597 160.909C86.537 160.909 86.4788 160.909 86.4197 160.909C86.387 160.301 86.3543 159.693 86.3206 159.086C86.3288 157.454 86.4861 155.811 86.2207 154.201C86.097 154.204 85.9725 154.208 85.8489 154.21C85.7971 154.565 85.7426 154.918 85.6917 155.273C85.608 155.267 85.5317 155.26 85.4372 155.254V146.852C85.3426 146.852 85.279 146.851 85.1845 146.85V149.311C85.1218 149.313 85.0709 149.314 85.0163 149.316C84.8682 148.411 84.7236 147.507 84.5746 146.602C84.471 146.613 84.3628 146.625 84.2683 146.636V150.163C84.2055 150.163 84.1492 150.164 84.0937 150.165C83.9347 147.009 83.772 143.852 83.6129 140.695C83.5275 140.699 83.4466 140.703 83.352 140.706V150.77C82.8158 149.127 83.5229 147.331 82.5804 145.754C82.4904 148.483 82.5058 151.205 82.4786 153.927C82.4731 154.447 82.304 154.964 82.2113 155.483C82.1604 155.098 82.1104 154.715 82.0595 154.33C81.077 155.989 81.3524 157.709 81.3278 159.397C81.2051 159.293 81.0797 159.189 80.9534 159.086V149.025C80.8906 149.024 80.7916 149.022 80.7079 149.021C80.567 150.397 80.4289 151.774 80.2871 153.15C80.2526 153.15 80.2189 153.15 80.1835 153.15C80.1308 152.554 80.078 151.957 80.0244 151.361C79.9735 151.364 79.9226 151.369 79.8708 151.373C79.8354 152.085 79.799 152.799 79.7635 153.511C79.6881 153.549 79.6136 153.586 79.5381 153.622C79.4391 153.351 79.3418 153.081 79.2427 152.81C79.1282 152.886 78.9973 152.961 78.9028 153.038V155.218C78.8082 155.221 78.7364 155.223 78.6546 155.226C78.4156 151.677 78.1729 148.129 77.9338 144.58C77.8575 144.584 77.7666 144.586 77.703 144.59V151.974C77.6403 151.974 77.5766 151.976 77.4821 151.977V149.118C76.9767 148.793 76.6613 148.573 76.2514 148.311V155.478C75.9987 154.002 75.7615 152.526 75.5033 150.951C75.0807 152.189 75.746 153.527 74.7362 154.578V146.314C74.4835 147.024 74.7316 148.01 74.3517 148.399C73.6218 149.148 73.6627 149.94 73.6309 150.789V154.512C72.0212 154.172 73.0656 152.885 72.4638 152.112C72.4075 152.922 72.3548 153.637 72.3048 154.351C72.2002 154.347 72.0948 154.343 71.9894 154.338C71.8903 151.15 71.7903 147.961 71.7058 145.229C71.184 148.693 70.5969 152.591 70.0106 156.487C69.9397 156.48 69.8679 156.473 69.797 156.466C69.7279 155.927 69.6597 155.388 69.5907 154.848C69.4552 154.847 69.3198 154.844 69.1844 154.842C69.1489 156.362 69.1135 157.882 69.078 159.402C69.008 159.394 68.939 159.386 68.869 159.379C68.8372 159.285 68.8044 159.192 68.7717 159.099C68.7472 157.669 69.0153 156.215 68.6108 154.818C68.4827 154.822 68.36 154.826 68.2336 154.829V158.232C68.1391 158.23 68.0446 158.228 67.9491 158.225V155.64C67.5074 155.802 67.232 155.912 66.8993 156.039C66.7702 155.42 66.6575 154.892 66.5484 154.363C66.4412 154.373 66.333 154.382 66.2267 154.392C66.174 155.258 66.1158 156.125 66.0458 157.275C65.545 155.84 66.2767 154.508 65.1714 153.471V155.51C65.1087 155.507 65.0505 155.505 64.9887 155.501C64.956 154.984 64.9251 154.467 64.8923 153.95C64.8042 153.94 64.7169 153.93 64.6288 153.921C64.387 155.145 64.1452 156.368 63.8971 157.622C63.6044 157.503 63.3608 157.403 63.0454 157.275C62.939 157.702 62.8527 158.048 62.7663 158.394C62.7 158.29 62.6327 158.186 62.5664 158.081C62.3019 158.169 62.0365 158.256 61.9101 158.299C61.6193 157.942 61.4056 157.423 61.0975 157.361C60.5821 157.254 60.444 156.153 59.685 156.831C59.2833 155.578 58.6388 156.452 58.3043 156.779C57.339 157.726 56.4983 158.381 55.7329 158.513C55.4457 158.212 55.1485 157.902 54.7831 157.521C54.6204 157.807 54.5077 158.004 54.3959 158.201C53.3424 157.657 53.0461 157.704 51.8472 158.108C51.0855 158.364 50.2411 158.608 49.4631 158.534C47.7061 158.37 45.9809 158.459 44.2448 158.687C43.7613 158.75 43.2514 158.733 42.7678 158.659C41.7543 158.503 40.7699 158.191 39.7447 158.699C39.5138 158.813 39.0966 158.571 38.7803 158.492V159.682C40.2328 160.149 41.6598 160.16 43.1423 159.769C43.7867 159.599 44.5121 159.689 45.1956 159.739C45.5055 159.762 45.9409 159.897 46.0763 160.124C46.4317 160.727 46.9089 160.526 47.3625 160.441C48.5205 160.227 49.6703 159.971 50.8265 159.743C51.4646 159.618 51.9499 159.731 52.2717 160.422C52.3989 160.697 53.0925 161.03 53.2015 160.94C54.0378 160.252 55.0849 161.162 55.9184 160.527C56.0283 160.443 56.4446 160.763 56.5492 160.814C57.0191 160.387 57.4181 160.026 58.0289 159.471C58.3907 160.528 58.6561 161.305 58.9361 162.123C58.9788 161.77 59.0215 161.415 59.096 160.797C59.2515 161.294 59.3214 161.519 59.416 161.823C59.8086 161.789 60.354 160.883 60.6358 162.296C60.7558 161.619 60.8103 161.311 60.8648 161.003C60.9421 160.954 61.0193 160.905 61.0966 160.856C61.1121 161.057 61.1302 161.258 61.1457 161.459C61.2239 161.404 61.2884 161.348 61.3829 161.293V160.563C61.5411 161.192 61.6965 161.82 61.9401 162.784C62.1546 162.034 62.2828 161.577 62.4991 160.817C62.5627 161.733 62.6036 162.33 62.6382 162.838C63.2299 162.151 63.7971 161.49 64.4561 160.725C64.6733 161.612 64.8678 162.437 65.0696 163.262C65.1369 163.251 65.2023 163.239 65.265 163.228V159.402L65.3959 159.399L65.5259 159.41C65.694 160.695 65.2023 162.068 66.1803 163.262V160.818C66.2121 160.818 66.2567 160.818 66.2967 160.818C66.4475 162.03 66.5966 163.242 66.7602 164.558C67.0793 163.525 67.3465 162.661 67.6137 161.796C67.7564 162.985 67.9037 164.173 68.0464 165.361C68.1073 165.361 68.17 165.361 68.2327 165.36V162.334C68.2954 162.332 68.3536 162.33 68.4163 162.328C68.5827 163.419 68.7472 164.509 68.9144 165.599C69.0989 164.677 69.058 163.759 69.1098 162.846C69.1526 162.088 69.3016 161.336 69.4034 160.582C69.567 161.734 68.9271 163.059 70.1751 164.008C70.3605 163.36 70.5369 162.719 70.7196 162.079C70.7977 162.092 70.8841 162.104 70.9477 162.117V166.61C71.863 165.468 71.2077 164.131 71.6531 162.785C71.8303 164.714 71.9948 166.495 72.1575 168.275C72.2484 168.27 72.3366 168.264 72.4311 168.259V165.322C72.5256 165.324 72.6202 165.326 72.7156 165.328V169.231C72.8101 169.231 72.9047 169.229 73.0001 169.228V164.73C73.0628 164.73 73.1501 164.729 73.2273 164.728C73.2619 165.245 73.2946 165.762 73.3291 166.278C73.5764 165.708 73.5418 165.136 73.5836 164.569C73.6445 163.749 73.7573 162.933 73.8518 162.116V168.604C73.9781 168.606 74.1163 168.607 74.249 168.609C74.309 165.438 74.369 162.268 74.429 159.097C74.4671 158.78 74.5044 158.462 74.5426 158.144C74.5971 158.143 74.6526 158.141 74.7071 158.141C74.7362 158.45 74.7653 158.759 74.7944 159.068C74.8625 162.157 74.478 165.269 75.2643 168.329C75.3534 167.847 75.3534 167.366 75.3534 166.885C75.3534 164.608 75.3479 162.331 75.3615 160.055C75.3643 159.625 75.4443 159.196 75.4879 158.766C75.5433 158.826 75.6051 158.881 75.6524 158.947C75.6797 158.985 75.6833 159.04 75.6969 159.088C75.7733 160.681 75.8505 162.275 75.9269 163.869C75.9996 163.869 76.0723 163.868 76.145 163.867C76.3132 162.672 76.4814 161.477 76.6495 160.282C76.7368 160.289 76.8177 160.297 76.9122 160.305V166.625C77.2594 165.361 77.5675 164.281 77.8402 163.306C78.3092 164.863 78.7992 166.487 79.2891 168.112C79.6563 167.564 79.7881 167.045 79.8026 166.521C79.8363 165.284 79.7899 164.043 79.8335 162.806C79.859 162.084 80.0053 161.366 80.1008 160.646V170.959C80.1635 170.96 80.2526 170.962 80.3316 170.963C80.4907 168.582 80.6425 166.199 80.8016 163.818C80.8752 163.818 80.9534 163.818 81.0161 163.819V168.572C81.1424 168.572 81.2342 168.572 81.3415 168.572C81.4305 166.416 81.5223 164.262 81.6114 162.107C81.8559 163.283 82.1004 164.46 82.3631 165.725C82.4995 163.438 82.6303 161.256 82.7612 159.073C82.7967 158.587 82.833 158.101 82.8685 157.614C82.9258 157.62 82.9857 157.624 83.0421 157.63C83.0703 158.115 83.0994 158.6 83.1312 159.084V169.817C83.542 167.917 83.2821 165.991 83.901 164.071C84.3982 162.529 84.2219 160.77 84.3446 159.108L84.4291 159.112L84.5146 159.11C84.5355 160.693 84.5337 162.277 84.5937 163.859C84.6091 164.268 84.7345 164.956 84.9563 165.021C85.6199 165.218 85.4508 165.668 85.4581 166.065C85.4771 167.105 85.4644 168.147 85.4644 169.189C85.5371 169.184 85.6099 169.18 85.6817 169.175C85.7417 168.968 85.8016 168.761 85.8616 168.553C85.9616 168.563 86.0671 168.572 86.1616 168.58V176.365C86.3197 176.364 86.477 176.363 86.6033 176.362V165.37C86.7297 165.373 86.856 165.376 86.9824 165.378V174.246C87.0451 174.251 87.116 174.256 87.1851 174.262C87.4696 172.36 87.7513 170.458 88.0304 168.593C88.0985 168.705 88.1885 168.855 88.4403 169.27C88.6003 167.781 88.7321 166.546 88.8648 165.311C88.9011 165.311 88.9366 165.311 88.9729 165.31C89.0129 166.118 89.052 166.926 89.092 167.734C89.9128 164.872 89.5519 161.969 89.5974 159.084C89.6292 158.474 89.661 157.863 89.6928 157.253C89.7528 157.254 89.8128 157.255 89.8737 157.256C89.9046 157.869 89.9355 158.481 89.9673 159.093C90.0119 161.881 90.0628 164.669 90.1073 167.456C90.2527 167.456 90.3918 167.455 90.549 167.455V160.835H90.8335V168.581C90.9599 168.583 91.0599 168.587 91.1735 168.59C91.2926 167.1 91.4044 165.609 91.5234 164.12C91.5907 164.121 91.6543 164.121 91.7179 164.123V170.953C91.8125 170.954 91.857 170.956 91.9234 170.957C91.9843 170.469 92.0543 169.981 92.1151 169.494C92.2006 169.501 92.286 169.506 92.3806 169.512V173.606C92.4124 173.601 92.4505 173.595 92.4887 173.589C92.6287 172.706 92.7596 171.824 92.9005 170.941C93.015 170.95 93.1386 170.959 93.2331 170.968V173.624C93.3595 173.623 93.454 173.621 93.5486 173.618V169.432C93.7694 169.916 93.8521 170.08 93.9458 170.279C94.0603 170.03 94.1521 169.83 94.2593 169.595C94.3611 169.852 94.4429 170.06 94.5248 170.267C94.6356 170.259 94.7465 170.251 94.8574 170.244C95.1592 167.175 94.8747 164.081 95.0138 161.006C95.1019 161.526 95.2592 162.047 95.2664 162.569C95.2946 164.786 95.2783 167.003 95.2783 169.22C96.3135 166.477 95.6055 163.612 96.0154 160.517C96.4844 162.986 95.7273 165.262 96.7371 167.368V155.537C96.8635 155.539 96.9898 155.541 97.1161 155.543V168.556C97.2107 168.558 97.3352 168.56 97.447 168.562C97.5706 166.919 97.697 165.277 97.8206 163.634C98.5605 164.891 97.8106 166.324 98.884 167.806V163.255C99.1367 164.438 99.1067 165.619 99.1776 166.793C99.2458 167.918 98.8204 169.115 99.7357 170.159V166.787C100.619 169.108 100.672 171.52 100.655 173.942C100.761 173.937 100.872 173.933 100.966 173.929V169.232C101.219 169.729 101.352 169.95 101.584 170.383C101.708 169.959 101.801 169.783 101.805 169.605C101.908 166.1 102.001 162.595 102.096 159.09C102.217 159.187 102.335 159.283 102.456 159.379C102.513 162.464 102.103 165.569 103.018 168.625V162.053C103.112 162.053 103.207 162.053 103.302 162.053V171.312C103.429 171.316 103.577 171.32 103.713 171.324C103.85 168.028 103.995 164.732 104.131 161.436C104.262 161.44 104.376 161.443 104.534 161.446V168.913C104.566 168.913 104.621 168.913 104.668 168.913C104.787 168.496 104.904 168.08 105.023 167.663C105.135 167.676 105.228 167.69 105.355 167.703V172.188C105.449 172.188 105.576 172.188 105.702 172.188V165.897C105.765 165.895 105.859 165.893 105.941 165.892C105.978 166.406 106.016 166.92 106.054 167.434C106.136 167.434 106.207 167.433 106.303 167.432V164.704C106.397 164.706 106.492 164.709 106.587 164.71V174.509C106.714 174.509 106.839 174.509 106.963 174.51C107.032 171.561 107.097 168.612 107.186 165.666C107.204 165.089 107.344 164.516 107.44 163.941V169.8C107.503 169.802 107.595 169.803 107.676 169.805C107.975 168.11 108.272 166.414 108.595 164.587C108.648 165.597 108.7 166.5 108.747 167.403C108.836 167.398 108.924 167.394 109.019 167.389V161.444C109.081 161.444 109.177 161.445 109.271 161.446V171.288C109.334 171.293 109.425 171.298 109.503 171.302C109.737 169.79 109.969 168.279 110.204 166.768C110.273 166.779 110.341 166.791 110.41 166.802C110.442 167.095 110.474 167.389 110.506 167.682C110.604 168.487 110.698 169.291 110.797 170.097C110.89 170.09 110.977 170.084 111.072 170.078V165.341C111.608 168.592 110.914 171.9 111.956 175.117V171.3C112.208 171.652 112.291 171.788 112.528 172.139C112.528 169.832 112.512 167.767 112.545 165.704C112.553 165.188 112.729 164.674 112.827 164.16C112.978 166.766 112.3 169.49 114.028 172.126C114.544 168.53 115.018 165.159 115.491 161.93V168.92C115.555 168.919 115.594 168.918 115.645 168.916C115.798 167.916 115.949 166.916 116.102 165.917C116.873 166.279 116.639 166.993 116.696 167.607C116.764 168.343 116.842 169.077 116.914 169.812C117.058 169.802 117.196 169.791 117.354 169.781V163.015C117.448 163.018 117.543 163.021 117.638 163.023V173.31C117.985 172.458 118.088 171.594 118.188 170.73C118.226 170.4 118.274 170.071 118.318 169.741C118.374 169.801 118.435 169.858 118.484 169.924C118.512 169.962 118.516 170.016 118.532 170.063C118.725 171.473 118.918 172.884 119.112 174.293C119.183 174.287 119.256 174.281 119.328 174.273C119.361 173.849 119.393 173.424 119.426 173.001C119.469 173.001 119.511 173.001 119.553 173.001C119.645 173.398 119.742 173.795 119.833 174.193C119.952 174.189 120.069 174.184 120.195 174.18V165.653C120.29 165.653 120.372 165.654 120.462 165.655C120.619 168.72 120.767 171.785 120.923 174.85C121.009 174.848 121.11 174.847 121.173 174.845V162.647C121.583 164.417 121.261 166.241 121.737 167.99C122.483 165.536 121.33 162.869 122.941 160.268V168.627C123.036 168.628 123.13 168.629 123.226 168.63V166.469C123.288 166.465 123.335 166.46 123.391 166.456C123.567 167.092 123.743 167.726 123.919 168.362C123.976 168.353 124.033 168.345 124.089 168.337C124.127 167.55 124.165 166.763 124.204 165.976C124.336 165.977 124.468 165.977 124.601 165.979C124.773 168.147 124.942 170.316 125.112 172.484C125.179 172.484 125.245 172.483 125.308 172.482V169.131C125.466 169.119 125.597 169.106 125.74 169.094C125.834 170.216 125.93 171.338 126.023 172.46C126.076 172.456 126.13 172.45 126.183 172.445C126.333 170.361 126.484 168.278 126.634 166.195C126.654 166.195 126.673 166.196 126.693 166.197C126.808 167.685 126.929 169.174 127.044 170.663C127.188 170.655 127.328 170.646 127.486 170.638V165.345C127.548 165.348 127.644 165.349 127.738 165.352V169.286C127.865 169.297 127.985 169.308 128.107 169.319C128.285 167.48 128.462 165.641 128.639 163.803C128.701 163.806 128.763 163.808 128.824 163.811C128.981 165.988 129.143 168.166 129.3 170.345C129.346 170.343 129.38 170.34 129.444 170.339V159.08C129.444 158.381 129.44 157.684 129.44 156.986C129.565 157.685 129.688 158.383 129.814 159.082C129.81 160.368 129.779 161.655 129.808 162.941C129.837 164.221 129.662 165.525 129.964 166.896C130.359 166.588 130.58 166.419 131.021 166.07V174.219C131.116 174.219 131.211 174.217 131.306 174.216V169.792C131.401 169.789 131.481 169.786 131.566 169.782C131.819 171.088 132.073 172.392 132.326 173.697C133.008 171.773 132.681 169.8 132.74 167.855C132.798 165.921 132.754 163.984 132.754 162.049C132.854 162.05 132.955 162.052 133.056 162.053C133.056 164.518 133.041 166.984 133.068 169.449C133.073 169.975 133.227 170.5 133.314 171.026C133.435 171.012 133.547 170.998 133.673 170.984V165.31C134.03 167.291 134.42 168.511 134.841 168.969V159.39L134.983 159.373L135.125 159.386V171.28C135.284 171.286 135.453 171.292 135.615 171.298C135.883 168.542 135.62 165.747 135.786 162.983C135.89 162.986 135.978 162.99 136.104 162.993V166.535C136.168 166.53 136.262 166.526 136.325 166.521V165.361C137.146 165.25 136.869 165.878 136.904 166.247C137.057 167.833 137.184 169.421 137.33 171.145C137.508 170.409 137.653 169.815 137.797 169.221C138.059 170.678 138.322 172.136 138.557 173.44C138.789 172.104 139.045 170.639 139.3 169.172C139.399 168.732 139.561 168.295 139.585 167.851C139.63 167 139.606 166.145 139.606 165.291C139.709 165.292 139.798 165.294 139.924 165.295V168.351C139.955 168.348 140.009 168.346 140.053 168.343C140.2 167.347 140.335 166.351 140.492 165.356V174.498C140.586 174.498 140.714 174.498 140.826 174.498C140.951 171.553 141.072 168.608 141.196 165.663C141.278 165.665 141.343 165.666 141.439 165.667V173.002C141.471 172.999 141.533 172.996 141.579 172.993C141.682 171.597 141.786 170.202 141.89 168.807C141.981 168.807 142.071 168.807 142.161 168.807C142.241 169.125 142.32 169.443 142.351 169.572C142.59 168.806 142.855 167.952 143.12 167.098C143.164 166.595 143.208 166.092 143.252 165.589C143.588 168.029 143.837 170.449 144.091 172.869C144.098 172.931 144.174 172.985 144.268 173.111C144.331 172.615 144.384 172.209 144.436 171.804C144.52 171.809 144.595 171.815 144.689 171.821V179.588C144.942 179.004 144.925 178.417 144.945 177.833C145.037 175.221 145.09 172.607 145.258 170C145.359 168.436 145.642 166.885 145.843 165.327C145.994 166.819 146.145 168.313 146.296 169.805C146.339 169.809 146.394 169.812 146.425 169.816V167.089C146.552 167.087 146.646 167.086 146.773 167.085V171.842C146.867 171.838 146.962 171.834 147.057 171.83V165.047C147.593 166.59 146.931 168.291 147.878 170.042V156.427C148.004 156.431 148.131 156.434 148.257 156.438V169.497C148.32 169.499 148.374 169.501 148.431 169.503C148.497 169.171 148.564 168.841 148.664 168.337C148.802 168.777 148.878 169 148.948 169.223C149.031 169.205 149.11 169.186 149.205 169.168V164.196C149.237 164.2 149.274 164.203 149.31 164.207C149.466 166.57 149.618 168.934 149.774 171.298C149.826 171.292 149.877 171.288 149.929 171.282C149.993 171.066 150.057 170.849 150.121 170.633C150.195 170.636 150.278 170.639 150.342 170.642V174.932C150.436 174.94 150.505 174.947 150.586 174.955C150.748 174.613 150.905 174.272 151.065 173.931C151.131 173.943 151.194 173.954 151.257 173.967V179.28C152.173 173.963 151.538 168.604 152.105 163.28C152.236 166.544 152.37 169.808 152.501 173.071C153.618 168.445 153.201 163.753 153.235 159.083C153.271 158.656 153.309 158.229 153.345 157.802C153.398 157.802 153.456 157.802 153.509 157.802C153.546 158.229 153.592 158.655 153.624 159.081V173.649C153.719 173.651 153.804 173.652 153.896 173.653C154 171.008 154.102 168.362 154.207 165.716C154.854 164.962 154.285 163.715 155.327 163.061C155.551 162.92 155.407 162.196 155.434 161.741C155.652 164.226 155.646 166.696 155.655 169.167C155.657 169.809 155.671 170.453 155.739 171.09C156.098 174.46 156.512 177.825 156.828 181.198C156.945 182.443 156.852 183.708 156.852 184.964C156.953 184.964 157.033 184.964 157.159 184.964V178.666C157.191 178.664 157.264 178.662 157.319 178.66C157.404 178.897 157.488 179.135 157.574 179.373C157.639 179.363 157.703 179.354 157.767 179.345C157.893 175.476 158.018 171.607 158.143 167.738C158.225 167.74 158.294 167.742 158.389 167.743V173.963C158.421 173.959 158.452 173.954 158.484 173.95C158.869 171.486 159.258 169.021 159.643 166.556C159.719 166.563 159.778 166.568 159.873 166.575V172.166C159.968 172.166 160.031 172.166 160.126 172.165V160.558C160.189 160.558 160.245 160.559 160.303 160.56C160.456 164.432 160.608 168.304 160.76 172.176C160.854 172.174 160.947 172.172 161.041 172.17V166.887C162.335 168.192 161.818 169.647 161.886 170.975C161.957 172.364 161.899 173.759 161.899 175.151C162.004 175.151 162.114 175.151 162.209 175.151V169.15C162.304 169.148 162.36 169.146 162.433 169.143C162.612 170.829 162.795 172.515 162.975 174.202C163.118 174.191 163.251 174.179 163.409 174.167V167.709C163.503 167.712 163.63 167.714 163.724 167.717V177.535C163.788 177.535 163.819 177.534 163.864 177.533C163.978 176.022 164.094 174.512 164.208 173.002C164.313 173.009 164.42 173.016 164.526 173.024C164.562 173.542 164.599 174.06 164.635 174.578C164.701 174.576 164.769 174.575 164.835 174.573C164.865 173.953 164.898 173.332 164.927 172.71C165.009 172.71 165.081 172.71 165.177 172.71V175.453C165.209 175.451 165.256 175.449 165.297 175.447C165.639 172.646 165.982 169.846 166.324 167.045C166.446 167.056 166.566 167.068 166.691 167.079V169.549C166.786 169.549 166.88 169.547 166.976 169.546V162.451C167.07 163.469 167.216 164.485 167.236 165.505C167.276 167.638 167.25 169.772 167.25 171.907C167.323 171.907 167.396 171.907 167.469 171.906C167.63 169.612 167.791 167.32 167.951 165.027C167.999 165.029 168.046 165.031 168.095 165.033C168.134 165.654 168.175 166.276 168.214 166.896C168.305 166.895 168.395 166.893 168.49 166.891V162.349C168.584 162.351 168.704 162.353 168.813 162.355C168.922 164.341 169.03 166.328 169.138 168.314C169.188 168.314 169.237 168.315 169.286 168.316C169.321 167.8 169.355 167.283 169.39 166.766C169.439 166.767 169.487 166.769 169.536 166.77C169.693 169.591 169.851 172.41 170.008 175.231C171.072 171.799 170.723 168.254 170.858 164.752C170.963 164.757 171.079 164.76 171.173 164.765V179.28C171.458 177.846 171.231 176.375 171.488 174.991C172.035 172.03 171.469 169.029 172.204 166.039C172.72 163.939 172.283 161.604 172.272 159.374C172.307 159.28 172.309 159.187 172.277 159.092C172.312 158.39 172.355 157.687 172.389 156.984C172.466 156.987 172.531 156.99 172.626 156.992V158.306C172.626 162.756 172.618 167.206 172.625 171.656C172.625 172.046 172.608 172.758 172.707 172.777C174.04 173.037 173.448 174.073 173.477 174.749C173.557 176.664 173.505 178.584 173.505 180.502C173.602 180.504 173.697 180.506 173.794 180.508V178.954C173.794 174.109 173.794 169.262 173.794 164.417C173.794 162.834 173.791 161.252 173.814 159.67C173.817 159.436 173.959 159.203 174.036 158.969C174.067 159.007 174.104 159.044 174.135 159.082C173.909 161.915 174.394 164.656 175.372 167.352V165.07C175.404 165.074 175.443 165.079 175.481 165.082C175.631 169.404 175.771 173.726 175.92 178.048C176.014 178.045 176.099 178.044 176.193 178.041V162.922C176.288 162.922 176.382 162.922 176.477 162.921V180.192C176.824 178.435 177.009 176.673 177.049 174.909C177.11 172.234 177.049 169.556 177.078 166.879C177.083 166.363 177.264 165.848 177.365 165.333C177.556 166.952 176.824 168.729 178.307 170.307V167.209C178.402 167.736 178.535 168.262 178.543 168.79C178.573 170.622 178.512 172.456 178.568 174.287C178.616 175.859 178.772 177.426 178.884 178.995C178.988 178.991 179.096 178.986 179.191 178.982V162.092C179.285 162.092 179.38 162.094 179.444 162.094V163.709C179.444 168.612 179.436 173.515 179.46 178.418C179.464 179.114 179.637 179.81 179.732 180.506C179.833 180.496 179.934 180.487 180.036 180.478C180.036 179.989 180.036 179.5 180.036 179.011C180.036 175.247 180.004 171.482 180.065 167.719C180.078 166.925 180.434 166.135 180.632 165.343C180.732 167.719 180.833 170.096 180.933 172.472C180.989 172.466 181.044 172.459 181.101 172.453C181.235 171.4 181.369 170.349 181.503 169.296C181.643 170.658 181.784 172.018 181.925 173.38C181.964 173.388 182.003 173.396 182.042 173.404C182.093 172.97 182.144 172.535 182.195 172.1C182.288 172.101 182.38 172.102 182.473 172.104C182.594 173.217 182.715 174.33 182.836 175.442C183.013 173.858 182.962 172.286 183.027 170.717C183.092 169.173 182.711 167.583 183.407 165.943C184.347 167.331 183.593 168.829 184.119 170.136C184.212 169.601 184.177 169.068 184.22 168.541C184.282 167.776 184.399 167.017 184.493 166.256C184.597 170.208 184.701 174.16 184.805 178.112C184.806 178.161 184.795 178.215 184.811 178.26C184.89 178.483 184.976 178.704 185.06 178.924C185.172 178.908 185.283 178.892 185.394 178.874C185.394 177.157 185.343 175.436 185.411 173.721C185.466 172.318 185.037 170.866 185.986 169.53C186.313 169.069 186.265 168.297 186.277 167.664C186.312 165.832 186.282 163.999 186.302 162.165C186.305 161.83 186.427 161.496 186.492 161.162C186.625 161.176 186.768 161.188 186.894 161.202V171.207C186.989 171.205 187.115 171.203 187.21 171.201V166.221C187.272 166.217 187.354 166.214 187.426 166.21C187.683 168.18 187.939 170.15 188.196 172.119C188.267 172.114 188.346 172.107 188.408 172.101V161.755C188.882 164.903 188.282 168.113 189.261 171.228V163.243C189.356 163.234 189.426 163.224 189.508 163.215C189.964 166.057 190.42 168.899 190.874 171.74C190.994 171.736 191.113 171.731 191.233 171.727C191.409 169.99 191.592 168.253 191.769 166.517C191.825 166.516 191.882 166.516 191.944 166.514V171.587C192.039 171.587 192.164 171.587 192.278 171.587C192.403 168.801 192.525 166.013 192.661 162.982C192.837 164.332 192.978 165.436 193.121 166.538C193.152 166.739 193.182 166.941 193.214 167.142C193.266 167.134 193.318 167.125 193.369 167.116C193.414 166.527 193.458 165.938 193.502 165.35C193.554 165.356 193.607 165.36 193.658 165.366C193.884 168.12 194.109 170.875 194.335 173.629C194.412 173.623 194.502 173.618 194.565 173.613V159.367C194.597 159.275 194.621 159.18 194.617 159.08L194.765 159.076L194.912 159.085V173.563C195.038 173.563 195.205 173.563 195.356 173.563C195.432 169.649 195.504 165.736 195.579 161.822C195.624 161.825 195.666 161.828 195.711 161.831C195.813 163.041 195.914 164.25 196.015 165.46C196.113 165.468 196.21 165.477 196.307 165.485C196.492 165.11 196.675 164.737 196.859 164.362C196.944 164.364 197.03 164.366 197.115 164.368C197.207 166.366 197.297 168.364 197.389 170.362C197.458 170.361 197.531 170.36 197.595 170.359V163.869C197.69 164.382 197.829 164.893 197.876 165.411C198.032 167.143 198.159 168.876 198.295 170.609C198.339 170.606 198.383 170.602 198.427 170.599C198.547 168.653 198.667 166.708 198.787 164.762C198.941 165.059 199.095 165.355 199.388 165.916C199.388 164.993 199.337 164.36 199.413 163.742C199.443 163.5 199.757 163.292 199.943 163.069C200.103 164.888 200.258 166.706 200.418 168.524C200.521 168.523 200.627 168.522 200.722 168.521V160.912C200.88 160.913 201.006 160.914 201.132 160.915V170.639C201.226 170.645 201.31 170.649 201.395 170.655C201.556 169.464 201.721 168.273 201.882 167.077C202 167.205 202.111 167.323 202.245 167.467C202.388 165.646 202.528 163.884 202.666 162.122C203.332 161.988 203.221 162.489 203.231 162.845C203.264 164.058 203.274 165.27 203.292 166.483C203.303 166.531 203.305 166.584 203.326 166.626C203.347 166.668 203.387 166.702 203.419 166.738C203.555 166.372 203.796 166.008 203.809 165.638C203.856 164.269 203.828 162.895 203.828 161.524C204.36 164.262 203.784 167.049 204.731 169.748V164.169C204.826 164.167 204.952 164.166 205.047 164.164V168.513C205.078 168.503 205.108 168.495 205.137 168.486C205.404 166.257 205.673 164.03 205.94 161.801C206.024 161.807 206.109 161.815 206.193 161.821C206.342 163.078 206.495 164.335 206.645 165.591C206.689 165.59 206.721 165.588 206.784 165.588V159.086C206.784 158.7 206.813 158.313 206.829 157.927C206.934 158.314 207.038 158.7 207.144 159.088C207.118 159.18 207.117 159.273 207.144 159.366C207.132 161.747 206.896 164.142 207.563 166.592C207.68 166.227 207.762 165.977 207.841 165.727C207.908 165.738 207.983 165.749 208.046 165.761V169.135C208.141 169.142 208.249 169.149 208.352 169.155C208.433 168.397 208.533 167.64 208.591 166.879C208.704 165.368 208.793 163.855 208.893 162.343C209.199 162.973 209.503 163.605 209.97 164.57C210.041 163.245 210.095 162.235 210.149 161.225C210.645 163.187 209.797 165.315 211.16 167.099C211.498 165.517 211.837 163.928 212.249 162.004C212.478 163.143 212.639 163.909 212.793 164.675C212.902 164.663 213.002 164.65 213.128 164.639V160.652C213.128 160.657 213.159 160.662 213.179 160.667C213.409 162.808 213.635 164.949 213.866 167.09C214.006 167.089 214.144 167.087 214.285 167.086C214.475 165.324 214.664 163.562 214.852 161.805C215.184 161.834 215.356 161.816 215.369 161.854C215.581 162.476 215.773 163.106 216.061 164.024C216.244 163.305 216.364 162.863 216.537 162.179C216.749 164.755 216.727 164.755 217.958 164.707V161.586C218.021 161.584 218.129 161.581 218.219 161.578C218.374 162.267 218.524 162.957 218.679 163.646C218.833 164.081 218.986 164.516 219.179 165.058C219.333 164.139 219.459 163.392 219.596 162.577C219.948 162.98 220.21 163.28 220.473 163.581C220.499 163.855 220.52 164.13 220.545 164.404C220.62 164.402 220.705 164.4 220.768 164.398V160.308C220.862 160.301 220.958 160.294 221.05 160.287C221.205 161.369 221.362 162.451 221.527 163.596C221.623 163.432 221.687 163.315 221.763 163.206C221.778 163.186 221.846 163.203 221.885 163.203C221.972 163.534 222.059 163.87 222.147 164.204C222.219 164.196 222.293 164.188 222.366 164.179C222.536 163.182 222.708 162.185 222.879 161.188C223.129 162.244 223.373 163.3 223.623 164.356C223.694 164.355 223.765 164.353 223.828 164.352V161.375C223.954 161.365 224.039 161.355 224.141 161.345C224.481 162.271 224.823 163.198 225.164 164.128C226.509 163.314 225.283 161.573 226.371 160.574C226.436 161.343 226.497 162.073 226.558 162.803C226.676 162.797 226.794 162.793 226.912 162.787C226.985 162.07 227.058 161.353 227.111 160.823C227.476 161.703 227.879 162.679 228.357 163.833C228.749 163.008 229.034 162.409 229.434 161.564C229.623 162.184 229.731 162.536 229.921 163.162C229.991 162.276 230.035 161.719 230.105 160.835C230.279 161.403 230.348 161.63 230.418 161.861C230.63 161.741 230.828 161.63 231.042 161.508C231.18 161.987 231.295 162.388 231.459 162.955C231.933 162.594 232.278 162.332 232.598 162.088C232.651 162.235 232.738 162.476 232.874 162.851C233.417 162.277 233.868 161.802 234.282 161.366C234.578 161.817 234.863 162.254 235.148 162.689C235.236 162.673 235.318 162.658 235.413 162.643V160.373C235.475 160.379 235.534 160.386 235.594 160.392C235.652 161.009 235.709 161.626 235.775 162.346C236.733 161.467 237.321 160.596 237.18 159.392L237.294 159.383L237.409 159.39C237.613 160.524 237.818 161.658 238.009 162.726C238.905 162.743 239.221 162.407 239.431 161.722C239.582 161.231 240.108 160.856 240.524 160.362C240.746 161.212 240.926 161.9 241.134 162.697C242.528 161.992 243.265 161.048 243.383 159.651C243.738 160.636 244.093 161.619 244.466 162.65C244.552 162.285 244.625 161.979 244.702 161.65C244.95 161.801 245.109 161.897 245.175 161.937C245.674 161.306 246.132 160.728 246.726 159.977C246.998 160.917 247.212 161.658 247.472 162.565C247.838 162.054 248.132 161.62 248.449 161.204C249.001 160.476 249.826 160.531 250.216 161.326C250.377 161.655 250.489 162.01 250.581 162.243C250.955 161.665 251.318 161.103 251.681 160.541C252.226 160.613 252.771 160.685 253.401 160.768C253.45 160.935 253.532 161.209 253.632 161.543C253.913 161.113 254.165 160.727 254.518 160.187C255.197 161.445 256.097 160.827 256.934 160.687C257.317 160.624 257.744 160.138 258.018 160.872C258.055 160.971 258.431 161.028 258.611 160.974C259.28 160.769 259.932 160.51 260.666 160.246C260.801 160.506 260.932 160.757 261.058 161C262.238 160.893 263.299 159.704 264.601 160.62C264.705 160.693 264.914 160.722 265.021 160.667C266.397 159.975 267.928 160.301 269.314 160.297C272.466 160.287 275.616 159.631 278.77 160.175C278.911 160.199 279.063 160.163 279.209 160.152C280.628 160.048 282.047 159.945 283.466 159.837C292.757 159.125 287.973 158.819 282.975 158.711Z" fill="white"/>
</g>
<path d="M49.3518 44.1934C66.4139 44.9963 81.7699 45.4982 95.4196 45.6989C108.869 45.8996 124.726 46 142.993 46L195.986 46C210.84 46 223.687 45.8996 234.526 45.6989C245.165 45.4982 257.209 44.9963 270.658 44.1934L271.862 52.9252C267.446 55.7355 261.725 62.1588 254.7 72.1954C247.674 82.4327 241.552 93.774 236.333 106.219L165.876 274.833L158.65 274.833L79.4614 99.8963C74.2424 88.4546 68.8227 78.6188 63.2022 70.3888C57.5818 62.1588 52.4631 56.3376 47.8463 52.9252L49.3518 44.1934ZM224.891 102.606C227.099 97.3871 229.106 92.5696 230.913 88.1535C232.519 83.7374 233.322 80.4254 233.322 78.2173C233.322 73.6005 229.408 71.2921 221.579 71.2921L194.781 71.5932C189.362 71.7939 180.53 71.8943 168.285 71.8943C157.044 71.8943 148.914 71.7939 143.896 71.5932L119.808 71.2921C113.987 71.2921 109.973 71.6936 107.765 72.4965C105.556 73.5001 104.452 75.2063 104.452 77.6151C104.452 79.4217 105.255 82.1316 106.861 85.7447C108.266 89.3579 109.973 93.4729 111.98 98.0897L171.296 231.174L224.891 102.606Z" fill="white"/>
</g>
<defs>
<clipPath id="clip0_118_8">
<rect width="323" height="323" fill="white"/>
</clipPath>
<clipPath id="clip1_118_8">
<rect width="267.664" height="47.8803" fill="white" transform="translate(38.7715 137.091)"/>
</clipPath>
</defs>
</svg>
